<svg width="2644" height="1157" viewBox="0 0 2644 1157" fill="none" xmlns="http://www.w3.org/2000/svg">
<path d="M2516.88 29.3502V19.0794H2565.27V29.3502H2547.23V78H2534.92V29.3502H2516.88ZM2574.86 19.0794H2590.22L2606.45 58.6667H2607.14L2623.36 19.0794H2638.73V78H2626.64V39.6498H2626.15L2610.91 77.7123H2602.68L2587.43 39.506H2586.94V78H2574.86V19.0794Z" fill="black"/>
<rect x="2316.39" y="17" width="151" height="1120" fill="black"/>
<path d="M782.895 333C1009.06 333 1192.39 517.459 1192.39 745C1192.39 972.541 1009.06 1157 782.895 1157C556.734 1157 373.395 972.541 373.395 745C373.395 517.459 556.734 333 782.895 333ZM783.395 476C638.696 476 521.395 596.435 521.395 745C521.395 893.565 638.696 1014 783.395 1014C928.093 1014 1045.39 893.565 1045.39 745C1045.39 596.435 928.093 476 783.395 476Z" fill="black"/>
<path d="M1733.89 333C1960.06 333 2143.39 517.459 2143.39 745C2143.39 972.541 1960.06 1157 1733.89 1157C1507.73 1157 1324.39 972.541 1324.39 745C1324.39 517.459 1507.73 333 1733.89 333ZM1734.39 476C1589.14 476 1471.39 596.435 1471.39 745C1471.39 893.565 1589.14 1014 1734.39 1014C1879.65 1014 1997.39 893.565 1997.39 745C1997.39 596.435 1879.65 476 1734.39 476Z" fill="black"/>
<path d="M264 486.279C198.526 506.702 151 567.802 151 640.002V649.999L151.006 650V1137H0.00585938V641.45C0.00366654 640.968 0 640.485 0 640.002C0 484.012 114.476 354.76 264 331.672V486.279Z" fill="black"/>
</svg>
