<svg width="2720" height="1320" viewBox="780 440 2720 1320" fill="none" xmlns="http://www.w3.org/2000/svg">
<path d="M3338.88 572.35V562.079H3387.27V572.35H3369.23V621H3356.92V572.35H3338.88ZM3396.86 562.079H3412.22L3428.45 601.667H3429.14L3445.36 562.079H3460.73V621H3448.64V582.65H3448.15L3432.91 620.712H3424.68L3409.43 582.506H3408.94V621H3396.86V562.079Z" fill="black"/>
<rect x="3138.39" y="560" width="151" height="1120" fill="black"/>
<path d="M1604.89 876C1831.06 876 2014.39 1060.46 2014.39 1288C2014.39 1515.54 1831.06 1700 1604.89 1700C1378.73 1700 1195.39 1515.54 1195.39 1288C1195.39 1060.46 1378.73 876 1604.89 876ZM1605.39 1019C1460.7 1019 1343.39 1139.44 1343.39 1288C1343.39 1436.56 1460.7 1557 1605.39 1557C1750.09 1557 1867.39 1436.56 1867.39 1288C1867.39 1139.44 1750.09 1019 1605.39 1019Z" fill="black"/>
<path d="M2555.89 876C2782.06 876 2965.39 1060.46 2965.39 1288C2965.39 1515.54 2782.06 1700 2555.89 1700C2329.73 1700 2146.39 1515.54 2146.39 1288C2146.39 1060.46 2329.73 876 2555.89 876ZM2556.39 1019C2411.14 1019 2293.39 1139.44 2293.39 1288C2293.39 1436.56 2411.14 1557 2556.39 1557C2701.65 1557 2819.39 1436.56 2819.39 1288C2819.39 1139.44 2701.65 1019 2556.39 1019Z" fill="black"/>
<path d="M1086 1029.28C1020.53 1049.7 973 1110.8 973 1183V1193L973.006 1193V1680H822.006V1184.45C822.004 1183.97 822 1183.48 822 1183C822 1027.01 936.476 897.76 1086 874.672V1029.28Z" fill="black"/>
</svg>
